<svg width="27" height="27" viewBox="0 0 27 27" fill="none" xmlns="http://www.w3.org/2000/svg">
<g clip-path="url(#clip0_1527_21)">
<path d="M14.644 20.3685C14.548 20.4245 14.45 20.4785 14.35 20.5305C14.254 20.5785 14.152 20.6305 14.044 20.6865C13.92 20.7465 13.776 20.8185 13.612 20.9025C13.452 20.9825 13.282 21.0725 13.102 21.1725C12.922 21.2685 12.74 21.3745 12.556 21.4905C12.308 21.6545 12.106 21.8245 11.95 22.0005C11.798 22.1765 11.722 22.3705 11.722 22.5825C11.722 22.7945 11.826 22.9585 12.034 23.0745C12.242 23.1865 12.556 23.2425 12.976 23.2425C13.18 23.2425 13.4 23.2345 13.636 23.2185C13.872 23.1985 14.102 23.1725 14.326 23.1405C14.554 23.1045 14.756 23.0665 14.932 23.0265L14.92 23.8845C14.752 23.9165 14.568 23.9445 14.368 23.9685C14.172 23.9925 13.96 24.0105 13.732 24.0225C13.504 24.0345 13.258 24.0405 12.994 24.0405C12.698 24.0405 12.422 24.0165 12.166 23.9685C11.91 23.9205 11.686 23.8445 11.494 23.7405C11.306 23.6365 11.158 23.4965 11.05 23.3205C10.946 23.1445 10.894 22.9265 10.894 22.6665C10.894 22.4145 10.95 22.1845 11.062 21.9765C11.174 21.7685 11.326 21.5765 11.518 21.4005C11.71 21.2245 11.924 21.0585 12.16 20.9025C12.352 20.7785 12.542 20.6645 12.73 20.5605C12.922 20.4525 13.102 20.3545 13.27 20.2665C13.442 20.1745 13.588 20.0925 13.708 20.0205C13.82 19.9565 13.92 19.8965 14.008 19.8405C14.1 19.7845 14.184 19.7245 14.26 19.6605L14.644 20.3685ZM11.812 18.9945C11.908 19.2585 12.01 19.5145 12.118 19.7625C12.23 20.0065 12.34 20.2345 12.448 20.4465C12.56 20.6585 12.662 20.8465 12.754 21.0105L12.076 21.4125C11.968 21.2285 11.856 21.0225 11.74 20.7945C11.624 20.5665 11.508 20.3265 11.392 20.0745C11.28 19.8185 11.168 19.5605 11.056 19.3005L11.812 18.9945ZM14.71 18.9045C14.762 18.9765 14.818 19.0625 14.878 19.1625C14.938 19.2625 14.994 19.3625 15.046 19.4625C15.102 19.5625 15.15 19.6505 15.19 19.7265L14.704 19.9305C14.644 19.8065 14.57 19.6665 14.482 19.5105C14.398 19.3505 14.316 19.2125 14.236 19.0965L14.71 18.9045ZM15.424 18.6285C15.476 18.7045 15.532 18.7945 15.592 18.8985C15.652 18.9985 15.71 19.0985 15.766 19.1985C15.826 19.2945 15.874 19.3785 15.91 19.4505L15.43 19.6545C15.37 19.5265 15.294 19.3845 15.202 19.2285C15.114 19.0725 15.028 18.9385 14.944 18.8265L15.424 18.6285ZM24.3624 22.1445C24.3424 21.9845 24.3544 21.8445 24.3984 21.7245C24.4464 21.6045 24.5124 21.4965 24.5964 21.4005C24.6844 21.3045 24.7804 21.2165 24.8844 21.1365C24.9924 21.0565 25.0924 20.9785 25.1844 20.9025C25.2804 20.8265 25.3584 20.7485 25.4184 20.6685C25.4784 20.5885 25.5084 20.5005 25.5084 20.4045C25.5084 20.2845 25.4784 20.1825 25.4184 20.0985C25.3584 20.0145 25.2704 19.9505 25.1544 19.9065C25.0424 19.8625 24.9064 19.8405 24.7464 19.8405C24.5624 19.8405 24.3944 19.8805 24.2424 19.9605C24.0904 20.0405 23.9404 20.1585 23.7924 20.3145L23.3004 19.8585C23.4924 19.6385 23.7184 19.4625 23.9784 19.3305C24.2424 19.1945 24.5324 19.1265 24.8484 19.1265C25.1404 19.1265 25.3984 19.1705 25.6224 19.2585C25.8504 19.3465 26.0284 19.4805 26.1564 19.6605C26.2884 19.8365 26.3544 20.0585 26.3544 20.3265C26.3544 20.4745 26.3224 20.6045 26.2584 20.7165C26.1984 20.8245 26.1184 20.9225 26.0184 21.0105C25.9224 21.0945 25.8204 21.1765 25.7124 21.2565C25.6044 21.3325 25.5044 21.4125 25.4124 21.4965C25.3204 21.5805 25.2484 21.6745 25.1964 21.7785C25.1444 21.8825 25.1244 22.0045 25.1364 22.1445H24.3624ZM24.7524 23.7405C24.6004 23.7405 24.4744 23.6905 24.3744 23.5905C24.2744 23.4905 24.2244 23.3645 24.2244 23.2125C24.2244 23.0565 24.2744 22.9285 24.3744 22.8285C24.4744 22.7285 24.6004 22.6785 24.7524 22.6785C24.9044 22.6785 25.0304 22.7285 25.1304 22.8285C25.2304 22.9285 25.2804 23.0565 25.2804 23.2125C25.2804 23.3645 25.2304 23.4905 25.1304 23.5905C25.0304 23.6905 24.9044 23.7405 24.7524 23.7405Z" fill="#24C8DB"/>
<path d="M17.1264 19.3245C17.3464 19.3485 17.5944 19.3665 17.8704 19.3785C18.1464 19.3905 18.4424 19.3965 18.7584 19.3965C18.9544 19.3965 19.1564 19.3925 19.3644 19.3845C19.5764 19.3765 19.7804 19.3665 19.9764 19.3545C20.1724 19.3425 20.3464 19.3285 20.4984 19.3125V20.1105C20.3584 20.1225 20.1884 20.1345 19.9884 20.1465C19.7924 20.1585 19.5864 20.1685 19.3704 20.1765C19.1584 20.1805 18.9564 20.1825 18.7644 20.1825C18.4524 20.1825 18.1624 20.1765 17.8944 20.1645C17.6264 20.1525 17.3704 20.1365 17.1264 20.1165V19.3245ZM17.6304 21.8685C17.6024 21.9725 17.5784 22.0745 17.5584 22.1745C17.5384 22.2745 17.5284 22.3745 17.5284 22.4745C17.5284 22.6665 17.6244 22.8245 17.8164 22.9485C18.0124 23.0725 18.3264 23.1345 18.7584 23.1345C19.0304 23.1345 19.2924 23.1245 19.5444 23.1045C19.7964 23.0845 20.0344 23.0565 20.2584 23.0205C20.4864 22.9845 20.6884 22.9425 20.8644 22.8945L20.8704 23.7405C20.6944 23.7805 20.4984 23.8145 20.2824 23.8425C20.0664 23.8745 19.8324 23.8985 19.5804 23.9145C19.3324 23.9345 19.0684 23.9445 18.7884 23.9445C18.3324 23.9445 17.9504 23.8945 17.6424 23.7945C17.3344 23.6945 17.1044 23.5505 16.9524 23.3625C16.8004 23.1705 16.7244 22.9365 16.7244 22.6605C16.7244 22.4845 16.7384 22.3245 16.7664 22.1805C16.7944 22.0365 16.8204 21.9085 16.8444 21.7965L17.6304 21.8685Z" fill="#FFC131"/>
<path d="M8.13388 9.60044C8.39521 10.0531 8.53109 10.5404 8.54152 11.0625C8.56003 11.5799 8.40892 12.0928 8.0882 12.6013C7.77556 13.1051 7.27167 13.5577 6.57654 13.9591L5.15799 14.7781L7.03399 18.0274L5.33658 19.0074L0.45058 10.5446L3.56654 8.74558C4.22126 8.36758 4.84431 8.15874 5.4357 8.11906C6.02709 8.07938 6.55028 8.19224 7.00527 8.45764C7.46834 8.71837 7.84454 9.0993 8.13388 9.60044ZM5.71279 12.631C6.1816 12.3603 6.4685 12.0546 6.57349 11.7138C6.67381 11.3649 6.61197 10.9964 6.38797 10.6084C5.91197 9.78398 5.21324 9.63776 4.29179 10.1698L2.94599 10.9468L4.36699 13.408L5.71279 12.631Z" fill="#24C8DB"/>
<path d="M14.273 14.5292C13.8111 14.7959 13.3371 14.9349 12.8509 14.9461C12.3614 14.9516 11.9015 14.8284 11.4712 14.5764C11.0467 14.3211 10.6928 13.9481 10.4094 13.4574C10.1261 12.9666 9.98293 12.472 9.97988 11.9734C9.9826 11.4714 10.1133 11.0111 10.3719 10.5923C10.6272 10.1678 10.9857 9.82222 11.4476 9.55556C11.9095 9.28889 12.3881 9.15115 12.8834 9.14233C13.3753 9.12773 13.8364 9.24641 14.2667 9.49835C14.7028 9.74696 15.0625 10.1166 15.3458 10.6074C15.6291 11.0981 15.7665 11.5961 15.758 12.1014C15.7553 12.6034 15.6234 13.0683 15.3624 13.4961C15.1038 13.9149 14.7406 14.2592 14.273 14.5292ZM13.663 13.4727C13.8824 13.346 14.0573 13.1757 14.1879 12.9618C14.3208 12.7388 14.3834 12.4871 14.3755 12.2068C14.3676 11.9265 14.2754 11.6334 14.0987 11.3274C13.8354 10.8713 13.5125 10.592 13.13 10.4895C12.7499 10.3779 12.3867 10.4221 12.0403 10.6221C11.6939 10.8221 11.474 11.1146 11.3806 11.4995C11.2897 11.8753 11.3759 12.2913 11.6392 12.7474C11.9025 13.2035 12.2185 13.4907 12.587 13.6089C12.9579 13.7181 13.3166 13.6727 13.663 13.4727Z" fill="#FFC131"/>
<path d="M25.1638 7.16394C24.8867 7.32394 24.6022 7.40732 24.3105 7.41408C24.0168 7.41737 23.7409 7.34343 23.4827 7.19227C23.228 7.0391 23.0157 6.81529 22.8457 6.52084C22.6757 6.22639 22.5898 5.92959 22.5879 5.63042C22.5896 5.32925 22.668 5.05305 22.8231 4.80181C22.9763 4.5471 23.1914 4.33974 23.4686 4.17974C23.7457 4.01974 24.0328 3.9371 24.33 3.93181C24.6252 3.92305 24.9019 3.99425 25.16 4.14542C25.4217 4.29459 25.6375 4.51639 25.8075 4.81084C25.9775 5.10529 26.0599 5.4041 26.0548 5.70727C26.0532 6.00843 25.9741 6.28737 25.8174 6.54408C25.6623 6.79532 25.4444 7.00194 25.1638 7.16394ZM24.7978 6.53001C24.9294 6.45401 25.0344 6.35184 25.1127 6.22348C25.1925 6.08966 25.23 5.93867 25.2253 5.7705C25.2206 5.60233 25.1652 5.42644 25.0592 5.24284C24.9012 4.96918 24.7075 4.8016 24.478 4.74011C24.25 4.67315 24.032 4.69967 23.8242 4.81967C23.6163 4.93967 23.4844 5.11515 23.4284 5.34611C23.3738 5.5716 23.4255 5.82118 23.5835 6.09484C23.7415 6.36851 23.9311 6.54082 24.1522 6.61177C24.3747 6.67727 24.5899 6.65001 24.7978 6.53001Z" fill="#FFC131"/>
<path d="M19.6221 5.87176C20.0343 5.63376 20.4392 5.56973 20.8368 5.67968C21.236 5.78325 21.5663 6.06135 21.8277 6.514L22.9652 8.4842L22.1165 8.9742L21.0455 7.11918C20.8938 6.85648 20.7116 6.69493 20.4989 6.63452C20.2839 6.57007 20.0612 6.60434 19.8308 6.73734C19.6005 6.87034 19.4574 7.04724 19.4017 7.26802C19.3476 7.48243 19.3965 7.72098 19.5481 7.98368L20.6191 9.8387L19.7704 10.3287L18.6994 8.47368C18.5477 8.21098 18.3656 8.04943 18.1529 7.98902C17.9378 7.92457 17.7151 7.95884 17.4848 8.09184C17.2504 8.22718 17.1053 8.40524 17.0495 8.62602C16.9955 8.84043 17.0443 9.07898 17.196 9.34168L18.267 11.1967L17.4183 11.6867L15.4793 8.32826L16.328 7.83826L16.5625 8.24442C16.5899 8.03997 16.6652 7.84833 16.7883 7.6695C16.9154 7.48834 17.082 7.33826 17.2881 7.21926C17.5508 7.06759 17.8179 6.98884 18.0893 6.983C18.3585 6.97312 18.6091 7.03857 18.8413 7.17935C18.8384 6.92236 18.9062 6.67576 19.0446 6.43956C19.1871 6.20103 19.3796 6.01176 19.6221 5.87176Z" fill="#24C8DB"/>
</g>
<defs>
<clipPath id="clip0_1527_21">
<rect width="27" height="27" fill="white"/>
</clipPath>
</defs>
</svg>
